<?xml version="1.0" encoding="UTF-8"?> <svg xmlns="http://www.w3.org/2000/svg" width="407" height="46" viewBox="0 0 407 46" fill="none"><g clip-path="url(#clip0_684_1132)"><path d="M125.679 2.71241C125.679 3.74806 126.617 4.63575 127.654 4.63575H151.815L115.654 25.4843L117.58 28.8132L153.741 7.96462L132.864 44.0767L136.198 46L157.074 9.88797V34.0161C157.074 35.0517 157.963 35.9887 159 35.9887C160.037 35.9887 160.926 35.0517 160.926 34.0161V0.789064H127.654C126.617 0.789064 125.679 1.67676 125.679 2.71241Z" fill="black"></path><path d="M187.926 0C186.889 0 186 0.789064 186 1.92334V29.0474L176.667 0.789065H170.988V34.0284C170.988 35.0641 171.877 36.0011 172.914 36.0011C173.951 36.0011 174.839 35.0641 174.839 34.0284V7.39748L183.975 35.1134H189.852V1.92334C189.852 0.789064 188.963 0 187.926 0Z" fill="black"></path><path d="M216.815 0C215.778 0 214.889 0.789064 214.889 1.92334V29.0474L205.556 0.789065H199.877V34.0284C199.877 35.0641 200.765 36.0011 201.802 36.0011C202.84 36.0011 203.728 35.0641 203.728 34.0284V7.39748L212.864 35.1134H218.741V1.92334C218.741 0.789064 217.852 0 216.815 0Z" fill="black"></path><path d="M238.222 0.44385C230.42 0.44385 228.444 6.65773 228.444 9.61673V26.2364C228.444 29.3927 230.37 35.5079 238.025 35.5079C245.679 35.5079 247.951 29.3927 247.951 26.2857V9.66604C247.951 6.65773 245.877 0.44385 238.222 0.44385ZM244.099 26.2364C244.099 30.9215 240.049 31.7105 238.222 31.7105C236.395 31.7105 232.247 30.9708 232.247 26.2364V9.71536C232.247 4.98097 236.395 4.19191 238.222 4.19191C240.049 4.19191 244.148 5.03029 244.148 9.71536L244.099 26.2364Z" fill="black"></path><path d="M274.42 0.147949C273.432 -0.0493174 272.346 0.641114 272.099 1.67676L265.63 30.0831L259.309 1.72608C259.062 0.591798 257.975 -0.0986339 256.988 0.147949C255.951 0.394531 255.259 1.43018 255.506 2.56446L263.111 35.0641H268.395L275.901 2.56446C276.148 1.43018 275.506 0.345215 274.42 0.147949Z" fill="black"></path><path d="M295.16 0.789064H287.556L279.901 33.3873C279.654 34.4723 280.198 35.4586 281.432 35.7052C282.42 35.9024 283.358 35.4586 283.654 34.2257L285.778 25.4966H297.037L299.161 34.2257C299.457 35.36 300.543 35.9024 301.481 35.7052C302.469 35.5079 303.16 34.4723 302.914 33.3873L295.16 0.789064ZM286.617 21.6993L290.568 4.53712H292.247L296.148 21.6993H286.617Z" fill="black"></path><path d="M326.469 0.789064H308.099C307.111 0.789064 306.173 1.72608 306.173 2.76173C306.173 3.79737 307.111 4.63575 308.099 4.63575H315.457V33.9791C315.457 35.1134 316.148 35.9024 317.284 35.9024C318.42 35.9024 319.16 35.1134 319.16 33.9791V4.63575H326.469C327.457 4.63575 328.395 3.74806 328.395 2.76173C328.395 1.72608 327.457 0.789064 326.469 0.789064Z" fill="black"></path><path d="M348.988 4.58644C349.975 4.58644 350.864 3.84669 350.864 2.76173C350.864 1.67676 349.975 0.789064 348.988 0.789064H335.259C334.173 0.789064 333.432 1.72608 333.432 2.76173C333.432 3.79737 334.173 4.58644 335.259 4.58644H340.296V31.2667H335.259C334.173 31.2667 333.432 32.2037 333.432 33.2393C333.432 34.275 334.173 35.0641 335.259 35.0641H348.988C349.975 35.0641 350.864 34.3243 350.864 33.2393C350.864 32.1544 349.975 31.2667 348.988 31.2667H343.951V4.58644H348.988Z" fill="black"></path><path d="M368.691 0.44385C360.889 0.44385 358.914 6.65773 358.914 9.61673V26.2364C358.914 29.3927 360.839 35.5079 368.494 35.5079C376.148 35.5079 378.42 29.3927 378.42 26.2857V9.66604C378.42 6.65773 376.346 0.44385 368.691 0.44385ZM374.568 26.2364C374.568 30.9215 370.518 31.7105 368.691 31.7105C366.864 31.7105 362.716 30.9708 362.716 26.2364V9.71536C362.716 4.98097 366.864 4.19191 368.691 4.19191C370.518 4.19191 374.617 5.03029 374.617 9.71536L374.568 26.2364Z" fill="black"></path><path d="M405.074 0C404.037 0 403.148 0.789064 403.148 1.92334V29.0474L393.815 0.789065H388.136V34.0284C388.136 35.0641 389.025 36.0011 390.062 36.0011C391.099 36.0011 391.988 35.0641 391.988 34.0284V7.39748L401.123 35.1134H407V1.92334C407 0.789064 406.111 0 405.074 0Z" fill="black"></path><path d="M2.76543 2.76173C2.76543 3.84669 3.50617 4.58644 4.59259 4.58644H13.8765V26.6309C13.8765 30.8228 10.9136 31.7105 8.79012 31.7105C6.66667 31.7105 3.75309 30.8228 3.75309 26.2857C3.75309 25.2008 2.91358 24.3624 1.82716 24.3624C0.740741 24.3624 0 25.2008 0 26.2857C0 32.0064 3.25926 35.5079 8.74074 35.5079C14.2222 35.5079 17.5802 32.1051 17.5802 26.335V0.789064H4.59259C3.50617 0.789064 2.76543 1.72608 2.76543 2.76173Z" fill="black"></path><path d="M45.1605 4.53712C46.1481 4.53712 47.037 3.64942 47.037 2.71241C47.037 1.72608 46.1481 0.789064 45.1605 0.789064H27.6296V35.0517H45.1605C46.1481 35.0517 47.037 34.2133 47.037 33.227C47.037 32.2407 46.1481 31.3037 45.1605 31.3037H31.4815V18.8266H44.0741C45.0617 18.8266 45.9506 17.8403 45.9506 16.9526C45.9506 15.9662 45.0617 15.0785 44.0741 15.0785H31.4815V4.53712H45.1605Z" fill="black"></path><path d="M73.4568 0C72.4198 0 71.5309 0.789064 71.5309 1.92334V29.0474L62.1975 0.789065H56.5185V34.0284C56.5185 35.0641 57.4074 36.0011 58.4444 36.0011C59.4815 36.0011 60.3704 35.0641 60.3704 34.0284V7.39748L69.5062 35.1134H75.3827V1.92334C75.3827 0.789064 74.4938 0 73.4568 0Z" fill="black"></path><path d="M99.1728 0.789064H91.5679L83.9136 33.3873C83.6667 34.4723 84.2099 35.4586 85.4444 35.7052C86.4321 35.9024 87.3704 35.4586 87.6667 34.2257L89.7901 25.4966H101.049L103.173 34.2257C103.469 35.36 104.556 35.9024 105.494 35.7052C106.481 35.5079 107.173 34.4723 106.926 33.3873L99.1728 0.789064ZM90.6296 21.6993L94.5802 4.53712H96.2592L100.16 21.6993H90.6296Z" fill="black"></path></g><defs><clipPath id="clip0_684_1132"><rect width="407" height="46" fill="white"></rect></clipPath></defs></svg> 
